# xmcd
#
# Track frame offsets: 
#        150
#        34685
#        70127
#        128213
#        153296
#        181444
#        218349
#
# Disc length: 3185 seconds
#
# Revision: 0
# Processed by: cddbd v1.5.2PL0 Copyright (c) Steve Scherf et al.
# Submitted via: ExactAudioCopy v0.95b4
#
DISCID=560c6f07
DTITLE=Vikram Hazra - Russians Rock With Vikram
DYEAR=2004
DGENRE=Bhajans
TTITLE0=Om Namah Shivaya Gurave
TTITLE1=Nikunj Mein Biraje
TTITLE2=Narayana Narayana
TTITLE3=Amazing Grace
TTITLE4=Nanda Ke Lala
TTITLE5=Flute Solo
TTITLE6=Jai Jai Radha Raman
EXTD=
EXTT0=
EXTT1=
EXTT2=
EXTT3=
EXTT4=
EXTT5=
EXTT6=
PLAYORDER=
